<?xml version="1.0" encoding="UTF-8"?>
<svg width="1200pt" height="1200pt" version="1.1" viewBox="0 0 1200 1200" xmlns="http://www.w3.org/2000/svg">
 <path d="m600 60c-298.8 0-540 241.2-540 540s241.2 540 540 540 540-241.2 540-540-241.2-540-540-540zm-183.6 822c-46.801 0-84-38.398-84-84 0-46.801 38.398-85.199 84-85.199 46.801 0 85.199 38.398 85.199 85.199 0.003906 45.602-38.398 84-85.199 84zm218.4-4.8008c-1.1992-79.199-32.398-153.6-88.801-210-56.398-56.398-129.6-87.602-208.8-88.801v-110.4c224.4 2.3984 406.8 184.8 409.2 409.2zm217.2 0c-3.6016-283.2-231.6-512.4-513.6-514.8v-110.4c342 1.1992 621.6 280.8 624 625.2z"/>
</svg>
